<svg xmlns="http://www.w3.org/2000/svg" xmlns:xlink="http://www.w3.org/1999/xlink" width="437" zoomAndPan="magnify" viewBox="0 0 327.75 345.74999" height="461" preserveAspectRatio="xMidYMid meet" version="1.0"><defs><clipPath id="c97f0b93bc"><path d="M 170 265 L 172.597656 265 L 172.597656 268 L 170 268 Z M 170 265 " clip-rule="nonzero"/></clipPath><clipPath id="b09a6c9f12"><path d="M 172 269 L 172.597656 269 L 172.597656 270.691406 L 172 270.691406 Z M 172 269 " clip-rule="nonzero"/></clipPath><clipPath id="d696664571"><path d="M 163.601562 269 L 172 269 L 172 270.691406 L 163.601562 270.691406 Z M 163.601562 269 " clip-rule="nonzero"/></clipPath><clipPath id="4ca8529aec"><path d="M 165 267 L 172 267 L 172 270.691406 L 165 270.691406 Z M 165 267 " clip-rule="nonzero"/></clipPath><clipPath id="77cdbf4831"><path d="M 171 268 L 172.597656 268 L 172.597656 270.691406 L 171 270.691406 Z M 171 268 " clip-rule="nonzero"/></clipPath><clipPath id="7f5c11217c"><path d="M 171 268 L 172.597656 268 L 172.597656 270 L 171 270 Z M 171 268 " clip-rule="nonzero"/></clipPath><clipPath id="67425b51d4"><path d="M 171 269 L 172.597656 269 L 172.597656 270 L 171 270 Z M 171 269 " clip-rule="nonzero"/></clipPath><clipPath id="1c77dbeb32"><path d="M 171 268 L 172.597656 268 L 172.597656 270 L 171 270 Z M 171 268 " clip-rule="nonzero"/></clipPath><clipPath id="a41cd5e11b"><path d="M 315 318 L 327.5 318 L 327.5 327 L 315 327 Z M 315 318 " clip-rule="nonzero"/></clipPath></defs><path fill="#000000" d="M 168.917969 261.929688 L 167.859375 261.929688 C 167.84375 261.929688 167.832031 261.917969 167.832031 261.902344 C 167.832031 261.886719 167.84375 261.875 167.859375 261.875 L 168.917969 261.875 C 168.933594 261.875 168.945312 261.886719 168.945312 261.902344 C 168.945312 261.917969 168.933594 261.929688 168.917969 261.929688 Z M 168.917969 261.929688 " fill-opacity="1" fill-rule="nonzero"/><path fill="#000000" d="M 169.921875 263.578125 C 169.910156 263.578125 169.898438 263.566406 169.898438 263.550781 L 169.898438 262.554688 C 169.898438 262.539062 169.910156 262.527344 169.921875 262.527344 C 169.9375 262.527344 169.949219 262.539062 169.949219 262.554688 L 169.949219 263.550781 C 169.949219 263.566406 169.9375 263.578125 169.921875 263.578125 Z M 169.921875 263.578125 " fill-opacity="1" fill-rule="nonzero"/><path fill="#047aff" d="M 170.886719 262.558594 L 169.066406 262.535156 C 168.988281 262.535156 168.921875 262.46875 168.921875 262.386719 L 168.933594 261.492188 C 168.933594 261.414062 168.996094 261.34375 169.078125 261.34375 L 170.902344 261.367188 C 170.980469 261.367188 171.046875 261.433594 171.042969 261.519531 L 171.035156 262.410156 C 171.035156 262.488281 170.972656 262.558594 170.886719 262.558594 Z M 168.984375 261.492188 L 168.976562 262.386719 C 168.976562 262.4375 169.015625 262.480469 169.066406 262.480469 L 170.886719 262.503906 C 170.945312 262.5 170.980469 262.457031 170.980469 262.410156 L 170.992188 261.515625 C 170.992188 261.464844 170.949219 261.421875 170.898438 261.421875 L 169.078125 261.398438 C 169.023438 261.398438 168.988281 261.445312 168.984375 261.492188 Z M 168.984375 261.492188 " fill-opacity="1" fill-rule="nonzero"/><g clip-path="url(#c97f0b93bc)"><path fill="#000000" d="M 170.328125 267.097656 C 170.332031 267.09375 170.523438 266.746094 170.527344 266.742188 C 170.539062 266.714844 170.539062 266.714844 170.519531 266.683594 C 170.515625 266.675781 170.425781 266.546875 170.417969 266.359375 C 170.410156 266.183594 170.476562 266.011719 170.605469 265.867188 C 170.789062 265.664062 171.074219 265.539062 171.386719 265.527344 C 171.941406 265.507812 172.40625 265.847656 172.425781 266.285156 C 172.429688 266.464844 172.367188 266.632812 172.234375 266.777344 C 172.054688 266.980469 171.769531 267.105469 171.453125 267.117188 C 171.21875 267.125 171.050781 267.09375 170.894531 267.015625 L 170.359375 267.140625 C 170.335938 267.144531 170.316406 267.121094 170.328125 267.097656 Z M 171.433594 265.582031 C 170.703125 265.582031 170.273438 266.175781 170.5625 266.648438 L 170.566406 266.652344 C 170.589844 266.695312 170.601562 266.714844 170.574219 266.769531 C 170.570312 266.777344 170.40625 267.070312 170.40625 267.074219 L 170.894531 266.960938 C 170.898438 266.957031 170.90625 266.957031 170.914062 266.960938 C 171.0625 267.039062 171.222656 267.070312 171.453125 267.0625 C 171.75 267.050781 172.023438 266.933594 172.195312 266.742188 C 172.316406 266.609375 172.378906 266.449219 172.371094 266.289062 C 172.355469 265.890625 171.9375 265.582031 171.433594 265.582031 Z M 171.433594 265.582031 " fill-opacity="1" fill-rule="nonzero"/></g><path fill="#047aff" d="M 166.117188 261.5625 C 166.183594 261.1875 166.625 260.953125 167.101562 261.039062 C 167.582031 261.125 167.917969 261.5 167.851562 261.875 C 167.835938 261.96875 167.792969 262.058594 167.730469 262.136719 C 167.703125 262.167969 167.695312 262.175781 167.710938 262.214844 C 167.726562 262.265625 167.710938 262.21875 167.84375 262.5625 L 167.371094 262.378906 C 167.210938 262.433594 167.054688 262.433594 166.863281 262.398438 C 166.386719 262.3125 166.050781 261.9375 166.117188 261.5625 Z M 166.117188 261.5625 " fill-opacity="1" fill-rule="nonzero"/><g clip-path="url(#b09a6c9f12)"><path fill="#000000" d="M 172.546875 270.15625 L 172.28125 269.992188 C 172.269531 269.984375 172.265625 269.96875 172.273438 269.957031 C 172.28125 269.941406 172.296875 269.9375 172.308594 269.945312 L 172.574219 270.109375 C 172.585938 270.117188 172.589844 270.132812 172.582031 270.144531 C 172.574219 270.160156 172.558594 270.164062 172.546875 270.15625 Z M 172.546875 270.15625 " fill-opacity="1" fill-rule="nonzero"/></g><g clip-path="url(#d696664571)"><path fill="#000000" d="M 163.621094 270.34375 C 163.613281 270.332031 163.613281 270.316406 163.625 270.304688 C 164.332031 269.742188 164.292969 269.765625 164.308594 269.765625 C 164.3125 269.765625 171.359375 269.761719 171.144531 269.761719 C 171.160156 269.761719 171.171875 269.773438 171.171875 269.789062 C 171.171875 269.804688 171.160156 269.816406 171.144531 269.816406 C 171.105469 269.816406 171.722656 269.816406 164.320312 269.820312 L 163.660156 270.347656 C 163.648438 270.359375 163.632812 270.355469 163.621094 270.34375 Z M 163.621094 270.34375 " fill-opacity="1" fill-rule="nonzero"/></g><path fill="#047aff" d="M 168.535156 268.761719 C 168.492188 268.886719 168.433594 269.015625 168.332031 269.101562 C 168.164062 269.242188 167.828125 269.160156 167.617188 269.15625 C 167.613281 269.152344 166.980469 269.140625 166.816406 269.136719 C 166.4375 269.128906 166.058594 269.121094 165.679688 269.113281 C 165.667969 268.699219 165.65625 268.304688 165.703125 267.90625 C 165.734375 267.65625 165.890625 266.398438 166.152344 266.257812 C 166.242188 266.210938 166.328125 266.21875 166.425781 266.214844 C 166.542969 266.207031 166.710938 266.203125 166.835938 266.203125 C 166.832031 266.234375 166.832031 266.269531 166.832031 266.304688 C 166.996094 266.496094 167.257812 266.570312 167.484375 266.492188 C 167.542969 266.472656 167.597656 266.421875 167.636719 266.363281 C 167.667969 266.316406 167.667969 266.257812 167.667969 266.203125 C 168.070312 266.214844 168.398438 266.304688 168.589844 266.675781 C 168.691406 266.878906 168.71875 267.113281 168.726562 267.34375 C 168.746094 267.824219 168.699219 268.3125 168.535156 268.761719 Z M 168.535156 268.761719 " fill-opacity="1" fill-rule="nonzero"/><path fill="#047aff" d="M 166.742188 266.195312 C 165.84375 266.199219 165.710938 266.375 165.292969 267.003906 C 164.988281 267.460938 164.332031 268.476562 164.285156 269.054688 C 164.253906 269.414062 164.40625 269.730469 164.777344 269.777344 L 167.300781 269.6875 L 167.363281 268.859375 C 167.195312 268.832031 166.09375 268.679688 166.058594 268.675781 C 165.972656 268.664062 165.871094 268.671875 165.789062 268.648438 C 165.671875 268.613281 165.625 268.46875 165.714844 268.375 C 165.792969 268.292969 165.886719 268.21875 165.96875 268.128906 C 166.089844 268 166.210938 267.871094 166.332031 267.742188 Z M 166.742188 266.195312 " fill-opacity="1" fill-rule="nonzero"/><path fill="#000000" d="M 167.097656 268.816406 C 167.09375 268.816406 167.15625 268.828125 165.773438 268.589844 C 165.753906 268.585938 165.742188 268.5625 165.753906 268.542969 L 166.375 267.703125 C 166.382812 267.691406 166.398438 267.6875 166.410156 267.695312 C 166.421875 267.707031 166.425781 267.722656 166.417969 267.734375 L 165.824219 268.542969 L 167.101562 268.761719 C 167.117188 268.765625 167.125 268.78125 167.125 268.792969 C 167.121094 268.808594 167.109375 268.816406 167.097656 268.816406 Z M 167.097656 268.816406 " fill-opacity="1" fill-rule="nonzero"/><g clip-path="url(#4ca8529aec)"><path fill="#000000" d="M 171.082031 267.582031 C 170.367188 267.558594 168.375 267.496094 167.8125 267.476562 C 167.726562 267.472656 167.648438 267.535156 167.621094 267.625 C 167.453125 268.238281 167.417969 268.320312 167.125 269.46875 C 167.101562 269.554688 167.027344 269.617188 166.9375 269.617188 L 165.859375 269.617188 C 165.753906 269.617188 165.667969 269.707031 165.667969 269.816406 L 165.667969 269.890625 C 165.667969 270 165.753906 270.089844 165.859375 270.089844 L 170.394531 270.089844 C 170.476562 270.089844 170.550781 270.035156 170.574219 269.953125 L 171.257812 267.847656 C 171.296875 267.71875 171.210938 267.585938 171.082031 267.582031 Z M 169.71875 268.914062 L 169.566406 269.023438 C 169.546875 269.035156 169.539062 269.054688 169.535156 269.074219 L 169.523438 269.246094 C 169.519531 269.289062 169.460938 269.320312 169.425781 269.296875 L 169.296875 269.207031 C 169.28125 269.195312 169.261719 269.195312 169.242188 269.203125 L 169.070312 269.273438 C 169.027344 269.289062 168.988281 269.253906 169.007812 269.207031 L 169.078125 269.039062 C 169.085938 269.023438 169.085938 269.003906 169.074219 268.988281 L 168.984375 268.859375 C 168.957031 268.824219 168.992188 268.769531 169.039062 268.765625 L 169.214844 268.753906 C 169.234375 268.753906 169.25 268.742188 169.261719 268.726562 L 169.378906 268.578125 C 169.410156 268.539062 169.46875 268.542969 169.476562 268.585938 L 169.515625 268.746094 C 169.519531 268.761719 169.53125 268.773438 169.546875 268.777344 L 169.710938 268.816406 C 169.753906 268.824219 169.757812 268.882812 169.71875 268.914062 Z M 169.71875 268.914062 " fill-opacity="1" fill-rule="nonzero"/></g><path fill="#000000" d="M 166.8125 266.320312 C 166.796875 266.304688 166.804688 266.34375 166.832031 265.550781 C 166.832031 265.535156 166.84375 265.523438 166.859375 265.523438 C 166.875 265.527344 166.886719 265.539062 166.886719 265.554688 C 166.882812 265.625 166.894531 265.285156 166.859375 266.292969 C 167.015625 266.46875 167.265625 266.539062 167.476562 266.46875 C 167.527344 266.449219 167.578125 266.40625 167.617188 266.347656 C 167.644531 266.300781 167.640625 266.242188 167.640625 266.1875 C 167.640625 266.050781 167.65625 266.011719 167.644531 265.800781 C 167.644531 265.785156 167.652344 265.773438 167.667969 265.769531 C 167.683594 265.769531 167.695312 265.78125 167.695312 265.796875 C 167.703125 265.921875 167.703125 265.957031 167.695312 266.058594 C 167.691406 266.148438 167.691406 266.160156 167.695312 266.203125 C 167.695312 266.257812 167.695312 266.324219 167.660156 266.378906 C 167.617188 266.445312 167.554688 266.496094 167.492188 266.519531 C 167.257812 266.601562 166.984375 266.519531 166.8125 266.320312 Z M 166.8125 266.320312 " fill-opacity="1" fill-rule="nonzero"/><path fill="#000000" d="M 166.839844 265.574219 C 166.734375 265.46875 166.660156 265.339844 166.613281 265.175781 C 166.503906 265.238281 166.347656 265.207031 166.277344 265.085938 C 166.242188 265.027344 166.230469 264.957031 166.238281 264.867188 C 166.246094 264.792969 166.265625 264.726562 166.304688 264.679688 C 166.390625 264.5625 166.546875 264.570312 166.652344 264.667969 C 166.660156 264.675781 166.664062 264.691406 166.652344 264.703125 C 166.644531 264.714844 166.625 264.71875 166.617188 264.707031 C 166.535156 264.632812 166.414062 264.621094 166.34375 264.714844 C 166.316406 264.753906 166.296875 264.804688 166.292969 264.875 C 166.285156 264.949219 166.296875 265.011719 166.324219 265.058594 C 166.351562 265.105469 166.398438 265.140625 166.453125 265.148438 C 166.511719 265.160156 166.574219 265.144531 166.613281 265.109375 C 166.625 265.097656 166.648438 265.105469 166.65625 265.125 L 166.65625 265.136719 C 166.699219 265.300781 166.769531 265.433594 166.878906 265.535156 C 166.886719 265.546875 166.886719 265.5625 166.878906 265.574219 C 166.867188 265.585938 166.851562 265.585938 166.839844 265.574219 Z M 166.839844 265.574219 " fill-opacity="1" fill-rule="nonzero"/><path fill="#000000" d="M 167.457031 265.867188 C 167.371094 265.867188 167.273438 265.84375 167.179688 265.804688 C 167.164062 265.800781 167.15625 265.785156 167.164062 265.769531 C 167.167969 265.757812 167.183594 265.75 167.199219 265.753906 C 167.289062 265.792969 167.378906 265.8125 167.457031 265.8125 C 167.632812 265.8125 167.828125 265.71875 167.96875 265.515625 C 168.125 265.292969 168.210938 264.960938 168.199219 264.621094 C 168.191406 264.285156 168.050781 263.945312 167.84375 263.761719 C 167.703125 263.640625 167.546875 263.589844 167.367188 263.613281 C 166.984375 263.660156 166.640625 264.054688 166.660156 264.644531 C 166.660156 264.660156 166.648438 264.675781 166.632812 264.675781 C 166.621094 264.675781 166.605469 264.664062 166.605469 264.648438 C 166.597656 264.386719 166.660156 264.140625 166.78125 263.949219 C 166.917969 263.730469 167.136719 263.585938 167.363281 263.558594 C 167.550781 263.535156 167.730469 263.589844 167.878906 263.722656 C 168.097656 263.914062 168.242188 264.265625 168.253906 264.617188 C 168.261719 264.96875 168.171875 265.382812 167.941406 265.636719 C 167.8125 265.777344 167.640625 265.867188 167.457031 265.867188 Z M 167.457031 265.867188 " fill-opacity="1" fill-rule="nonzero"/><path fill="#000000" d="M 168.140625 264.585938 C 168.125 264.574219 168.101562 264.570312 168.082031 264.566406 C 168.007812 264.558594 167.949219 264.558594 167.898438 264.570312 C 167.882812 264.574219 167.867188 264.566406 167.863281 264.550781 C 167.863281 264.535156 167.871094 264.523438 167.882812 264.519531 C 167.941406 264.503906 168.007812 264.503906 168.085938 264.511719 C 168.117188 264.515625 168.148438 264.523438 168.175781 264.542969 C 168.1875 264.554688 168.1875 264.570312 168.179688 264.582031 C 168.171875 264.59375 168.152344 264.597656 168.140625 264.585938 Z M 168.140625 264.585938 " fill-opacity="1" fill-rule="nonzero"/><path fill="#000000" d="M 166.40625 264.921875 C 166.394531 264.921875 166.382812 264.910156 166.382812 264.894531 C 166.382812 264.867188 166.382812 264.835938 166.394531 264.804688 C 166.410156 264.769531 166.433594 264.742188 166.464844 264.730469 C 166.535156 264.707031 166.597656 264.785156 166.550781 264.808594 C 166.539062 264.816406 166.523438 264.808594 166.515625 264.796875 C 166.511719 264.785156 166.496094 264.777344 166.480469 264.78125 C 166.464844 264.789062 166.453125 264.804688 166.445312 264.824219 C 166.4375 264.847656 166.433594 264.871094 166.433594 264.894531 C 166.433594 264.910156 166.421875 264.921875 166.40625 264.921875 Z M 166.40625 264.921875 " fill-opacity="1" fill-rule="nonzero"/><path fill="#000000" d="M 167.648438 265.117188 C 167.636719 265.117188 167.625 265.105469 167.625 265.089844 C 167.625 265.074219 167.636719 265.058594 167.652344 265.0625 C 167.71875 265.066406 167.761719 265.050781 167.773438 265.023438 C 167.789062 264.984375 167.757812 264.933594 167.734375 264.886719 C 167.699219 264.8125 167.695312 264.71875 167.722656 264.636719 C 167.726562 264.625 167.742188 264.617188 167.753906 264.621094 C 167.769531 264.625 167.777344 264.640625 167.773438 264.65625 C 167.75 264.722656 167.753906 264.800781 167.78125 264.863281 C 167.808594 264.921875 167.851562 264.980469 167.820312 265.046875 C 167.792969 265.109375 167.71875 265.121094 167.648438 265.117188 Z M 167.648438 265.117188 " fill-opacity="1" fill-rule="nonzero"/><path fill="#000000" d="M 167.359375 264.628906 C 167.398438 264.632812 167.414062 264.675781 167.40625 264.753906 C 167.398438 264.832031 167.375 264.871094 167.335938 264.863281 C 167.296875 264.859375 167.285156 264.820312 167.292969 264.742188 C 167.300781 264.664062 167.324219 264.625 167.359375 264.628906 Z M 167.359375 264.628906 " fill-opacity="1" fill-rule="nonzero"/><path fill="#000000" d="M 168.035156 264.707031 C 168.074219 264.710938 168.089844 264.753906 168.082031 264.832031 C 168.074219 264.910156 168.050781 264.945312 168.011719 264.941406 C 167.972656 264.9375 167.957031 264.898438 167.96875 264.816406 C 167.976562 264.738281 168 264.703125 168.035156 264.707031 Z M 168.035156 264.707031 " fill-opacity="1" fill-rule="nonzero"/><path fill="#000000" d="M 167.070312 264.550781 C 167.0625 264.539062 167.0625 264.523438 167.074219 264.511719 C 167.183594 264.417969 167.34375 264.386719 167.480469 264.429688 C 167.496094 264.433594 167.503906 264.449219 167.5 264.464844 C 167.496094 264.476562 167.480469 264.484375 167.464844 264.480469 C 167.34375 264.441406 167.203125 264.472656 167.109375 264.554688 C 167.097656 264.566406 167.078125 264.5625 167.070312 264.550781 Z M 167.070312 264.550781 " fill-opacity="1" fill-rule="nonzero"/><path fill="#000000" d="M 167.421875 265.371094 C 167.410156 265.359375 167.410156 265.34375 167.417969 265.332031 C 167.429688 265.320312 167.445312 265.320312 167.457031 265.328125 C 167.511719 265.378906 167.601562 265.417969 167.664062 265.398438 C 167.679688 265.390625 167.695312 265.398438 167.699219 265.414062 C 167.703125 265.429688 167.695312 265.445312 167.683594 265.449219 C 167.597656 265.476562 167.488281 265.429688 167.421875 265.371094 Z M 167.421875 265.371094 " fill-opacity="1" fill-rule="nonzero"/><path fill="#000000" d="M 168.292969 264.296875 C 168.054688 264.351562 167.796875 264.277344 167.601562 264.125 C 167.609375 264.214844 167.667969 264.296875 167.75 264.332031 C 167.402344 264.425781 167.019531 264.335938 166.742188 264.101562 C 166.570312 264.53125 166.71875 264.6875 166.496094 264.617188 C 166.457031 264.605469 166.4375 264.589844 166.398438 264.605469 C 166.382812 264.613281 166.304688 264.6875 166.316406 264.710938 C 166.210938 264.519531 166.050781 264.351562 166.03125 264.136719 C 166.007812 263.90625 166.171875 263.671875 166.390625 263.625 C 166.359375 263.519531 166.386719 263.402344 166.441406 263.308594 C 166.5 263.214844 166.585938 263.144531 166.675781 263.085938 C 167.128906 262.800781 167.824219 262.835938 168.152344 263.308594 C 168.226562 263.414062 168.246094 263.527344 168.296875 263.613281 C 168.339844 263.6875 168.429688 263.746094 168.507812 263.769531 C 168.535156 263.78125 168.8125 263.839844 168.820312 263.816406 C 168.746094 264.058594 168.535156 264.246094 168.292969 264.296875 Z M 168.292969 264.296875 " fill-opacity="1" fill-rule="nonzero"/><path fill="#000000" d="M 168.199219 267.421875 C 168.1875 267.367188 168.175781 267.308594 168.171875 267.253906 C 168.171875 267.238281 168.179688 267.226562 168.195312 267.222656 C 168.210938 267.222656 168.222656 267.234375 168.222656 267.246094 C 168.230469 267.300781 168.238281 267.355469 168.253906 267.40625 C 168.257812 267.421875 168.246094 267.4375 168.234375 267.441406 C 168.21875 267.445312 168.203125 267.433594 168.199219 267.421875 Z M 168.199219 267.421875 " fill-opacity="1" fill-rule="nonzero"/><path fill="#000000" d="M 169.617188 261.777344 C 169.617188 261.804688 169.617188 261.824219 169.605469 261.886719 C 169.585938 262.023438 169.597656 262.019531 169.59375 262.101562 C 169.59375 262.117188 169.582031 262.128906 169.566406 262.128906 C 169.550781 262.128906 169.539062 262.117188 169.539062 262.101562 C 169.546875 262.035156 169.539062 262.003906 169.546875 261.929688 C 169.476562 261.929688 169.390625 261.949219 169.3125 261.960938 C 169.308594 262.007812 169.296875 262.058594 169.292969 262.105469 C 169.292969 262.121094 169.28125 262.132812 169.265625 262.132812 C 169.25 262.132812 169.238281 262.121094 169.238281 262.105469 C 169.242188 262.050781 169.257812 261.976562 169.261719 261.925781 C 169.265625 261.867188 169.261719 261.855469 169.273438 261.761719 C 169.277344 261.734375 169.277344 261.710938 169.28125 261.695312 C 169.28125 261.660156 169.335938 261.660156 169.332031 261.699219 C 169.332031 261.710938 169.328125 261.734375 169.324219 261.765625 C 169.316406 261.847656 169.320312 261.839844 169.316406 261.90625 C 169.402344 261.890625 169.484375 261.875 169.554688 261.875 C 169.558594 261.847656 169.5625 261.808594 169.566406 261.753906 C 169.566406 261.730469 169.578125 261.679688 169.605469 261.679688 C 169.617188 261.679688 169.628906 261.691406 169.628906 261.707031 C 169.628906 261.710938 169.621094 261.714844 169.617188 261.777344 Z M 169.617188 261.777344 " fill-opacity="1" fill-rule="nonzero"/><path fill="#000000" d="M 170.03125 261.773438 C 170.015625 261.773438 169.996094 261.769531 169.96875 261.765625 C 169.914062 261.761719 169.90625 261.761719 169.886719 261.761719 C 169.882812 261.835938 169.886719 261.9375 169.882812 262.015625 C 169.878906 262.046875 169.886719 262.082031 169.875 262.109375 C 169.863281 262.132812 169.84375 262.132812 169.828125 262.117188 C 169.820312 262.109375 169.820312 262.097656 169.824219 262.085938 C 169.828125 262.0625 169.824219 262.027344 169.828125 261.988281 C 169.832031 261.921875 169.828125 261.828125 169.828125 261.761719 C 169.820312 261.761719 169.753906 261.761719 169.710938 261.75 C 169.675781 261.738281 169.6875 261.6875 169.71875 261.691406 C 169.742188 261.695312 169.777344 261.703125 169.808594 261.703125 C 169.839844 261.703125 169.882812 261.703125 169.910156 261.703125 C 169.945312 261.707031 169.996094 261.710938 170.035156 261.714844 C 170.058594 261.714844 170.070312 261.746094 170.050781 261.765625 C 170.046875 261.769531 170.039062 261.773438 170.03125 261.773438 Z M 170.03125 261.773438 " fill-opacity="1" fill-rule="nonzero"/><path fill="#000000" d="M 170.4375 262.148438 C 170.433594 262.140625 170.429688 262.125 170.425781 262.105469 C 170.414062 262.015625 170.414062 262.019531 170.398438 261.855469 L 170.332031 262.023438 C 170.316406 262.058594 170.304688 262.097656 170.285156 262.128906 C 170.277344 262.140625 170.265625 262.148438 170.253906 262.148438 C 170.222656 262.148438 170.222656 262.101562 170.214844 262.066406 C 170.199219 262 170.1875 261.929688 170.179688 261.851562 L 170.167969 261.902344 L 170.121094 262.050781 C 170.117188 262.070312 170.113281 262.09375 170.101562 262.128906 C 170.097656 262.144531 170.085938 262.152344 170.074219 262.148438 C 170.054688 262.148438 170.046875 262.136719 170.046875 262.117188 C 170.050781 262.050781 170.082031 261.984375 170.113281 261.890625 C 170.125 261.847656 170.140625 261.75 170.164062 261.71875 C 170.179688 261.699219 170.207031 261.695312 170.21875 261.726562 C 170.222656 261.742188 170.230469 261.777344 170.234375 261.828125 C 170.242188 261.890625 170.25 261.960938 170.265625 262.03125 C 170.339844 261.871094 170.363281 261.769531 170.363281 261.765625 C 170.371094 261.738281 170.382812 261.703125 170.410156 261.707031 C 170.445312 261.707031 170.449219 261.785156 170.449219 261.820312 C 170.453125 261.90625 170.464844 261.980469 170.476562 262.039062 C 170.480469 262.058594 170.496094 262.125 170.492188 262.136719 C 170.492188 262.164062 170.457031 262.179688 170.4375 262.148438 Z M 170.4375 262.148438 " fill-opacity="1" fill-rule="nonzero"/><path fill="#000000" d="M 170.796875 262.140625 C 170.757812 262.15625 170.589844 262.1875 170.558594 262.164062 C 170.546875 262.15625 170.542969 262.140625 170.542969 262.117188 L 170.554688 262.023438 C 170.589844 261.746094 170.574219 261.734375 170.589844 261.71875 C 170.609375 261.699219 170.636719 261.710938 170.636719 261.738281 C 170.613281 262.066406 170.601562 262.054688 170.597656 262.113281 C 170.648438 262.117188 170.707031 262.105469 170.785156 262.085938 C 170.804688 262.078125 170.820312 262.09375 170.816406 262.113281 C 170.816406 262.125 170.808594 262.136719 170.796875 262.140625 Z M 170.796875 262.140625 " fill-opacity="1" fill-rule="nonzero"/><path fill="#000000" d="M 171.261719 266.148438 C 171.246094 266.148438 171.234375 266.140625 171.230469 266.125 C 171.222656 266.109375 171.21875 266.097656 171.210938 266.097656 C 171.207031 266.09375 171.195312 266.09375 171.175781 266.089844 C 171.144531 266.089844 171.105469 266.117188 171.0625 266.167969 C 171.007812 266.238281 170.976562 266.304688 170.972656 266.363281 C 170.96875 266.421875 171.007812 266.476562 171.066406 266.476562 C 171.148438 266.476562 171.203125 266.402344 171.230469 266.40625 C 171.257812 266.40625 171.277344 266.445312 171.246094 266.46875 C 171.183594 266.523438 171.125 266.550781 171.0625 266.550781 C 170.964844 266.546875 170.898438 266.460938 170.90625 266.363281 C 170.910156 266.285156 170.945312 266.203125 171.011719 266.121094 C 171.070312 266.054688 171.125 266.019531 171.179688 266.019531 C 171.199219 266.019531 171.21875 266.019531 171.234375 266.027344 C 171.242188 266.015625 171.253906 266.007812 171.265625 266.007812 C 171.28125 266.007812 171.289062 266.019531 171.292969 266.042969 C 171.296875 266.0625 171.296875 266.082031 171.296875 266.113281 C 171.296875 266.132812 171.28125 266.148438 171.261719 266.148438 Z M 171.261719 266.148438 " fill-opacity="1" fill-rule="nonzero"/><path fill="#000000" d="M 171.605469 266.320312 C 171.605469 266.328125 171.605469 266.335938 171.597656 266.34375 C 171.582031 266.359375 171.566406 266.351562 171.550781 266.351562 C 171.5 266.351562 171.496094 266.351562 171.484375 266.351562 L 171.480469 266.433594 C 171.480469 266.453125 171.46875 266.464844 171.449219 266.464844 C 171.4375 266.464844 171.429688 266.460938 171.425781 266.457031 C 171.414062 266.441406 171.421875 266.421875 171.421875 266.390625 L 171.421875 266.351562 C 171.394531 266.351562 171.375 266.351562 171.363281 266.351562 C 171.328125 266.351562 171.3125 266.339844 171.3125 266.320312 C 171.3125 266.304688 171.320312 266.296875 171.332031 266.292969 C 171.34375 266.289062 171.355469 266.292969 171.425781 266.289062 L 171.425781 266.246094 C 171.429688 266.214844 171.429688 266.179688 171.460938 266.179688 C 171.480469 266.179688 171.492188 266.191406 171.492188 266.210938 C 171.492188 266.214844 171.492188 266.21875 171.488281 266.226562 C 171.488281 266.25 171.488281 266.25 171.484375 266.289062 L 171.511719 266.289062 C 171.523438 266.289062 171.539062 266.289062 171.554688 266.289062 C 171.589844 266.289062 171.609375 266.300781 171.605469 266.320312 Z M 171.605469 266.320312 " fill-opacity="1" fill-rule="nonzero"/><path fill="#000000" d="M 171.941406 266.324219 C 171.941406 266.332031 171.9375 266.339844 171.933594 266.347656 C 171.917969 266.363281 171.902344 266.351562 171.886719 266.351562 C 171.835938 266.351562 171.832031 266.355469 171.820312 266.351562 L 171.816406 266.433594 C 171.8125 266.457031 171.804688 266.464844 171.78125 266.464844 C 171.761719 266.464844 171.753906 266.457031 171.753906 266.433594 C 171.753906 266.429688 171.757812 266.347656 171.757812 266.355469 C 171.730469 266.355469 171.710938 266.355469 171.699219 266.355469 C 171.664062 266.355469 171.648438 266.34375 171.648438 266.324219 C 171.648438 266.308594 171.65625 266.296875 171.667969 266.292969 C 171.675781 266.292969 171.691406 266.292969 171.761719 266.292969 C 171.761719 266.246094 171.757812 266.179688 171.796875 266.183594 C 171.8125 266.183594 171.828125 266.195312 171.828125 266.210938 C 171.828125 266.222656 171.824219 266.238281 171.824219 266.25 L 171.820312 266.289062 C 171.84375 266.292969 171.839844 266.292969 171.867188 266.292969 C 171.875 266.289062 171.882812 266.289062 171.886719 266.289062 C 171.925781 266.292969 171.941406 266.300781 171.941406 266.324219 Z M 171.941406 266.324219 " fill-opacity="1" fill-rule="nonzero"/><path fill="#000000" d="M 166.707031 261.523438 C 166.707031 261.511719 166.703125 261.503906 166.699219 261.5 C 166.695312 261.496094 166.6875 261.496094 166.671875 261.492188 C 166.644531 261.488281 166.613281 261.503906 166.570312 261.539062 C 166.40625 261.679688 166.472656 261.816406 166.59375 261.78125 C 166.628906 261.769531 166.660156 261.746094 166.675781 261.75 C 166.699219 261.753906 166.707031 261.785156 166.679688 261.800781 C 166.59375 261.855469 166.488281 261.867188 166.4375 261.78125 C 166.417969 261.75 166.414062 261.714844 166.421875 261.675781 C 166.433594 261.613281 166.472656 261.550781 166.535156 261.496094 C 166.589844 261.449219 166.640625 261.429688 166.683594 261.4375 C 166.695312 261.4375 166.710938 261.441406 166.722656 261.449219 C 166.730469 261.441406 166.742188 261.4375 166.75 261.4375 C 166.761719 261.441406 166.769531 261.449219 166.769531 261.46875 C 166.769531 261.484375 166.765625 261.5 166.761719 261.523438 C 166.757812 261.554688 166.714844 261.5625 166.707031 261.523438 Z M 166.707031 261.523438 " fill-opacity="1" fill-rule="nonzero"/><path fill="#000000" d="M 166.753906 261.804688 C 166.753906 261.785156 166.769531 261.777344 166.785156 261.78125 C 166.808594 261.785156 166.804688 261.816406 166.824219 261.832031 C 166.847656 261.855469 166.910156 261.875 166.96875 261.855469 C 167.003906 261.84375 167.023438 261.824219 167.027344 261.796875 C 167.035156 261.773438 167.023438 261.753906 167 261.734375 C 166.953125 261.695312 166.902344 261.710938 166.855469 261.671875 C 166.832031 261.652344 166.824219 261.628906 166.828125 261.601562 C 166.835938 261.566406 166.859375 261.542969 166.902344 261.519531 C 166.96875 261.488281 167.019531 261.496094 167.074219 261.519531 C 167.101562 261.535156 167.117188 261.546875 167.113281 261.558594 C 167.105469 261.605469 167.050781 261.558594 167.007812 261.554688 C 166.960938 261.546875 166.898438 261.5625 166.890625 261.609375 C 166.882812 261.640625 166.945312 261.65625 166.980469 261.664062 C 167.066406 261.6875 167.097656 261.746094 167.085938 261.804688 C 167.0625 261.921875 166.886719 261.945312 166.789062 261.878906 C 166.761719 261.855469 166.746094 261.832031 166.753906 261.804688 Z M 166.753906 261.804688 " fill-opacity="1" fill-rule="nonzero"/><path fill="#000000" d="M 167.136719 261.871094 C 167.136719 261.863281 167.140625 261.855469 167.148438 261.851562 C 167.15625 261.847656 167.160156 261.847656 167.167969 261.847656 C 167.191406 261.851562 167.191406 261.882812 167.207031 261.898438 C 167.253906 261.945312 167.398438 261.945312 167.414062 261.863281 C 167.421875 261.8125 167.359375 261.78125 167.308594 261.769531 C 167.1875 261.742188 167.183594 261.640625 167.285156 261.585938 C 167.351562 261.554688 167.40625 261.5625 167.460938 261.585938 C 167.488281 261.601562 167.5 261.613281 167.496094 261.625 C 167.488281 261.671875 167.433594 261.625 167.390625 261.621094 C 167.34375 261.613281 167.285156 261.628906 167.273438 261.675781 C 167.265625 261.707031 167.332031 261.722656 167.363281 261.730469 C 167.449219 261.753906 167.480469 261.8125 167.46875 261.871094 C 167.445312 261.988281 167.273438 262.011719 167.175781 261.945312 C 167.144531 261.921875 167.132812 261.898438 167.136719 261.871094 Z M 167.136719 261.871094 " fill-opacity="1" fill-rule="nonzero"/><path fill="#000000" d="M 169.996094 263.535156 C 169.585938 263.484375 169.210938 263.769531 169.15625 264.175781 C 169.101562 264.585938 169.390625 264.957031 169.800781 265.007812 L 169.761719 265.242188 C 169.761719 265.242188 169.765625 265.238281 169.765625 265.238281 L 170.019531 265.003906 C 170.335938 264.953125 170.59375 264.699219 170.636719 264.367188 C 170.691406 263.960938 170.402344 263.589844 169.996094 263.535156 Z M 169.472656 264.238281 C 169.507812 264.265625 169.539062 264.3125 169.570312 264.34375 C 169.601562 264.375 169.558594 264.425781 169.523438 264.394531 C 169.484375 264.363281 169.453125 264.292969 169.394531 264.269531 C 169.375 264.261719 169.367188 264.25 169.367188 264.234375 C 169.367188 264.222656 169.378906 264.210938 169.394531 264.203125 C 169.453125 264.179688 169.503906 264.109375 169.546875 264.074219 C 169.574219 264.054688 169.605469 264.078125 169.601562 264.105469 C 169.601562 264.113281 169.597656 264.121094 169.589844 264.128906 C 169.566406 264.15625 169.527344 264.191406 169.472656 264.238281 Z M 169.8125 264.351562 L 169.738281 264.503906 C 169.714844 264.546875 169.660156 264.515625 169.675781 264.476562 C 169.734375 264.332031 169.859375 264.152344 169.917969 264.003906 C 169.957031 263.914062 169.984375 263.867188 170 263.871094 C 170.019531 263.871094 170.035156 263.886719 170.03125 263.90625 C 170.03125 263.925781 170.019531 263.941406 169.980469 264.03125 C 169.933594 264.148438 169.863281 264.261719 169.8125 264.351562 Z M 170.304688 264.289062 C 170.242188 264.34375 170.179688 264.390625 170.109375 264.429688 C 170.105469 264.433594 170.097656 264.4375 170.089844 264.4375 C 170.0625 264.433594 170.042969 264.394531 170.074219 264.371094 L 170.226562 264.265625 C 170.199219 264.242188 170.089844 264.140625 170.089844 264.105469 C 170.09375 264.078125 170.128906 264.058594 170.152344 264.085938 C 170.207031 264.15625 170.253906 264.203125 170.300781 264.230469 C 170.324219 264.246094 170.324219 264.269531 170.304688 264.289062 Z M 170.304688 264.289062 " fill-opacity="1" fill-rule="nonzero"/><path fill="#000000" d="M 171.277344 269.914062 C 170.953125 269.71875 170.878906 269.371094 170.96875 269.203125 C 171.03125 269.078125 171.183594 269.023438 171.320312 269.078125 C 171.328125 269.085938 171.335938 269.09375 171.335938 269.105469 C 171.332031 269.214844 171.332031 269.207031 171.332031 269.210938 L 171.320312 269.285156 C 171.316406 269.308594 171.289062 269.316406 171.273438 269.296875 C 171.253906 269.273438 171.214844 269.265625 171.183594 269.277344 C 171.15625 269.292969 171.132812 269.328125 171.125 269.367188 C 171.109375 269.460938 171.171875 269.613281 171.308594 269.695312 C 171.316406 269.699219 171.320312 269.710938 171.320312 269.71875 C 171.320312 269.722656 171.320312 269.726562 171.316406 269.890625 C 171.316406 269.910156 171.292969 269.921875 171.277344 269.914062 Z M 171.015625 269.226562 C 170.945312 269.363281 171 269.660156 171.265625 269.839844 C 171.265625 269.835938 171.269531 269.738281 171.269531 269.734375 C 171.121094 269.640625 171.054688 269.46875 171.074219 269.359375 C 171.09375 269.246094 171.195312 269.1875 171.277344 269.230469 L 171.28125 269.203125 L 171.28125 269.125 C 171.171875 269.089844 171.0625 269.132812 171.015625 269.226562 Z M 171.015625 269.226562 " fill-opacity="1" fill-rule="nonzero"/><g clip-path="url(#77cdbf4831)"><path fill="#000000" d="M 171.546875 270.265625 C 171.460938 270.253906 171.367188 270.246094 171.304688 270.183594 C 171.234375 270.117188 171.261719 270.035156 171.261719 269.964844 C 171.265625 269.859375 171.253906 270.273438 171.285156 269.046875 C 171.285156 269.011719 171.3125 268.984375 171.347656 268.984375 L 172.285156 269.007812 C 172.320312 269.011719 172.34375 269.039062 172.34375 269.074219 C 172.304688 270.695312 172.332031 269.53125 172.324219 269.976562 C 172.320312 270.039062 172.335938 270.121094 172.289062 270.183594 L 172.285156 270.1875 C 172.214844 270.265625 172.105469 270.273438 172.007812 270.28125 C 171.851562 270.292969 171.699219 270.289062 171.546875 270.265625 Z M 171.34375 269.039062 C 171.332031 269.039062 171.339844 269.027344 171.320312 269.796875 C 171.316406 269.949219 171.316406 269.964844 171.3125 270.015625 C 171.304688 270.074219 171.304688 270.109375 171.339844 270.144531 C 171.394531 270.195312 171.476562 270.203125 171.554688 270.210938 C 171.796875 270.246094 172.007812 270.226562 172.019531 270.222656 C 172.101562 270.21875 172.191406 270.210938 172.246094 270.152344 L 172.25 270.144531 C 172.28125 270.105469 172.269531 270.039062 172.269531 269.976562 C 172.300781 268.71875 172.289062 269.175781 172.292969 269.074219 C 172.292969 269.066406 172.289062 269.0625 172.285156 269.0625 Z M 172.316406 269.074219 L 172.320312 269.074219 Z M 172.316406 269.074219 " fill-opacity="1" fill-rule="nonzero"/></g><g clip-path="url(#7f5c11217c)"><path fill="#000000" d="M 171.8125 269.148438 C 171.621094 269.144531 171.300781 269.105469 171.300781 269 C 171.304688 268.957031 171.355469 268.921875 171.46875 268.902344 C 171.738281 268.847656 172.332031 268.882812 172.328125 269.027344 C 172.324219 269.144531 171.929688 269.152344 171.8125 269.148438 Z M 171.757812 268.933594 C 171.507812 268.933594 171.363281 268.976562 171.355469 269.003906 C 171.363281 269.03125 171.527344 269.085938 171.8125 269.09375 C 172.09375 269.101562 172.261719 269.054688 172.273438 269.023438 C 172.261719 268.996094 172.097656 268.941406 171.816406 268.933594 C 171.796875 268.933594 171.777344 268.933594 171.757812 268.933594 Z M 172.273438 269.023438 Z M 172.273438 269.023438 " fill-opacity="1" fill-rule="nonzero"/></g><g clip-path="url(#67425b51d4)"><path fill="#000000" d="M 171.761719 269.925781 C 171.664062 269.925781 171.570312 269.859375 171.535156 269.769531 C 171.53125 269.757812 171.535156 269.742188 171.550781 269.734375 C 171.5625 269.730469 171.578125 269.734375 171.585938 269.75 C 171.613281 269.820312 171.6875 269.871094 171.761719 269.871094 C 171.835938 269.871094 171.910156 269.824219 171.949219 269.753906 C 171.984375 269.6875 171.980469 269.601562 171.945312 269.542969 C 171.914062 269.488281 171.847656 269.457031 171.789062 269.464844 C 171.726562 269.472656 171.671875 269.519531 171.652344 269.578125 C 171.636719 269.625 171.644531 269.671875 171.667969 269.699219 C 171.691406 269.730469 171.738281 269.734375 171.765625 269.714844 C 171.777344 269.703125 171.792969 269.703125 171.800781 269.714844 C 171.8125 269.726562 171.808594 269.746094 171.800781 269.753906 C 171.753906 269.796875 171.671875 269.789062 171.628906 269.734375 C 171.589844 269.691406 171.582031 269.625 171.601562 269.5625 C 171.628906 269.480469 171.699219 269.421875 171.78125 269.410156 C 171.863281 269.402344 171.949219 269.445312 171.992188 269.515625 C 172.039062 269.589844 172.039062 269.695312 171.992188 269.777344 C 171.945312 269.867188 171.855469 269.925781 171.761719 269.925781 Z M 171.761719 269.925781 " fill-opacity="1" fill-rule="nonzero"/></g><g clip-path="url(#1c77dbeb32)"><path fill="#000000" d="M 171.53125 268.972656 C 171.558594 268.960938 171.5625 268.925781 171.574219 268.898438 C 171.589844 268.867188 171.617188 268.84375 171.644531 268.832031 C 171.675781 268.824219 171.683594 268.832031 171.699219 268.855469 C 171.71875 268.886719 171.761719 268.949219 171.800781 268.925781 C 171.847656 268.894531 171.835938 268.816406 171.878906 268.78125 C 171.90625 268.757812 171.953125 268.769531 171.972656 268.800781 C 171.980469 268.816406 171.980469 268.832031 171.988281 268.847656 C 172.03125 268.945312 172.21875 268.910156 172.285156 268.992188 C 172.308594 269.019531 172.28125 269.050781 172.253906 269.066406 C 172.140625 269.128906 172.003906 269.105469 171.882812 269.097656 C 171.714844 269.089844 171.476562 269.109375 171.410156 269.054688 C 171.386719 269.035156 171.382812 268.988281 171.410156 268.964844 C 171.449219 268.933594 171.492188 268.988281 171.53125 268.972656 Z M 171.53125 268.972656 " fill-opacity="1" fill-rule="nonzero"/></g><path fill="#000000" d="M 171.292969 267.953125 C 171.289062 267.9375 171.296875 267.925781 171.3125 267.917969 C 171.460938 267.871094 171.605469 267.75 171.710938 267.582031 C 171.8125 267.421875 171.875 267.242188 171.925781 267.074219 C 171.929688 267.058594 171.945312 267.050781 171.957031 267.054688 C 171.972656 267.058594 171.980469 267.074219 171.976562 267.089844 C 171.925781 267.253906 171.863281 267.449219 171.757812 267.613281 C 171.640625 267.789062 171.488281 267.917969 171.328125 267.972656 C 171.3125 267.976562 171.296875 267.96875 171.292969 267.953125 Z M 171.292969 267.953125 " fill-opacity="1" fill-rule="nonzero"/><path fill="#000000" d="M 170.90625 265.648438 L 170.394531 264.828125 C 170.386719 264.816406 170.386719 264.800781 170.402344 264.789062 C 170.414062 264.78125 170.429688 264.785156 170.4375 264.800781 L 170.949219 265.621094 C 170.957031 265.632812 170.953125 265.648438 170.941406 265.65625 C 170.929688 265.667969 170.914062 265.664062 170.90625 265.648438 Z M 170.90625 265.648438 " fill-opacity="1" fill-rule="nonzero"/><path fill="#000000" d="M 193.589844 34.722656 L 155 34.722656 C 154.464844 34.722656 154.03125 34.289062 154.03125 33.757812 C 154.03125 33.222656 154.464844 32.789062 155 32.789062 L 193.589844 32.789062 C 194.121094 32.789062 194.554688 33.222656 194.554688 33.757812 C 194.554688 34.289062 194.121094 34.722656 193.589844 34.722656 Z M 193.589844 34.722656 " fill-opacity="1" fill-rule="nonzero"/><path fill="#000000" d="M 230.1875 93.226562 C 229.65625 93.226562 229.222656 92.792969 229.222656 92.257812 L 229.222656 56.859375 C 229.222656 56.324219 229.65625 55.890625 230.1875 55.890625 C 230.722656 55.890625 231.15625 56.324219 231.15625 56.859375 L 231.15625 92.257812 C 231.15625 92.792969 230.722656 93.226562 230.1875 93.226562 Z M 230.1875 93.226562 " fill-opacity="1" fill-rule="nonzero"/><path fill="#047aff" d="M 265.296875 56.996094 L 198.972656 56.226562 C 196.054688 56.191406 193.707031 53.792969 193.742188 50.875 L 194.097656 19.226562 C 194.128906 16.386719 196.421875 13.96875 199.453125 13.996094 L 265.777344 14.765625 C 268.695312 14.800781 271.039062 17.199219 271.007812 20.117188 L 270.652344 51.765625 C 270.621094 54.542969 268.40625 56.996094 265.296875 56.996094 Z M 196.03125 19.25 L 195.675781 50.898438 C 195.65625 52.746094 197.144531 54.269531 198.996094 54.292969 L 265.320312 55.0625 C 267.382812 55.007812 268.699219 53.464844 268.714844 51.742188 L 269.074219 20.09375 C 269.09375 18.242188 267.605469 16.71875 265.753906 16.699219 L 199.429688 15.929688 C 197.460938 15.929688 196.050781 17.480469 196.03125 19.25 Z M 196.03125 19.25 " fill-opacity="1" fill-rule="nonzero"/><path fill="#000000" d="M 244.957031 218.046875 C 245.058594 217.867188 252.101562 205.5 252.1875 205.347656 C 252.671875 204.46875 252.671875 204.46875 251.917969 203.296875 C 251.816406 203.078125 248.476562 198.425781 248.199219 191.804688 C 247.929688 185.523438 250.296875 179.484375 255.046875 174.347656 C 261.726562 167.128906 272.109375 162.753906 283.535156 162.34375 C 303.695312 161.667969 320.597656 173.6875 321.269531 189.210938 C 321.539062 195.496094 319.171875 201.53125 314.425781 206.667969 C 307.746094 213.890625 297.359375 218.269531 285.933594 218.675781 C 277.382812 218.972656 271.273438 217.886719 265.570312 215.039062 L 246.011719 219.46875 C 245.195312 219.65625 244.542969 218.777344 244.957031 218.046875 Z M 285.234375 164.246094 C 258.613281 164.246094 242.917969 185.339844 253.421875 202.058594 L 253.546875 202.253906 C 254.476562 203.699219 254.878906 204.476562 253.875 206.289062 C 253.691406 206.621094 247.796875 216.96875 247.722656 217.097656 L 265.488281 213.074219 C 265.730469 213.019531 265.984375 213.0625 266.195312 213.1875 C 271.65625 215.972656 277.539062 217.039062 285.863281 216.742188 C 296.78125 216.351562 306.671875 212.203125 313.003906 205.355469 C 317.394531 200.609375 319.582031 195.054688 319.335938 189.296875 C 318.730469 175.242188 303.585938 164.246094 285.234375 164.246094 Z M 285.234375 164.246094 " fill-opacity="1" fill-rule="nonzero"/><path fill="#047aff" d="M 91.53125 21.667969 C 93.933594 8.347656 110.007812 0.0507812 127.441406 3.128906 C 144.875 6.214844 157.070312 19.503906 154.667969 32.816406 C 154.074219 36.15625 152.558594 39.324219 150.292969 42.027344 C 149.304688 43.183594 148.972656 43.464844 149.515625 44.867188 C 150.214844 46.648438 149.554688 44.929688 154.421875 57.105469 L 137.21875 50.59375 L 137.171875 50.613281 C 131.433594 52.597656 125.695312 52.582031 118.757812 51.355469 C 101.324219 48.273438 89.128906 34.980469 91.53125 21.667969 Z M 91.53125 21.667969 " fill-opacity="1" fill-rule="nonzero"/><g clip-path="url(#a41cd5e11b)"><path fill="#000000" d="M 325.726562 326.394531 L 316.132812 320.648438 C 315.675781 320.375 315.523438 319.777344 315.800781 319.320312 C 316.074219 318.863281 316.667969 318.714844 317.128906 318.988281 L 326.722656 324.738281 C 327.179688 325.011719 327.332031 325.605469 327.054688 326.0625 C 326.78125 326.519531 326.1875 326.671875 325.726562 326.394531 Z M 325.726562 326.394531 " fill-opacity="1" fill-rule="nonzero"/></g><path fill="#000000" d="M 0.640625 333.101562 C 0.3125 332.679688 0.386719 332.070312 0.808594 331.742188 C 26.496094 311.800781 25.046875 312.605469 25.675781 312.605469 C 25.808594 312.605469 282.445312 312.496094 274.628906 312.5 C 275.164062 312.5 275.597656 312.933594 275.597656 313.46875 C 275.597656 314 275.164062 314.433594 274.632812 314.433594 C 273.304688 314.433594 295.707031 314.425781 26.007812 314.539062 L 2 333.265625 C 1.578125 333.597656 0.96875 333.523438 0.640625 333.101562 Z M 0.640625 333.101562 " fill-opacity="1" fill-rule="nonzero"/><path fill="#047aff" d="M 179.644531 276.976562 C 177.992188 281.453125 175.890625 285.972656 172.242188 288.984375 C 166.140625 294.011719 153.863281 291.078125 146.109375 290.921875 C 145.964844 290.917969 122.996094 290.441406 116.988281 290.304688 C 103.160156 290.015625 89.347656 289.730469 75.523438 289.425781 C 75.113281 274.722656 74.765625 260.78125 76.464844 246.703125 C 77.539062 237.839844 83.273438 193.160156 92.753906 188.1875 C 96.015625 186.488281 99.226562 186.828125 102.773438 186.65625 C 107.019531 186.4375 113.199219 186.273438 117.660156 186.222656 C 117.605469 187.417969 117.570312 188.609375 117.515625 189.800781 C 123.605469 196.648438 133.070312 199.332031 141.300781 196.542969 C 143.53125 195.78125 145.519531 194.015625 146.910156 191.90625 C 148.019531 190.230469 148.007812 188.242188 147.980469 186.222656 C 162.695312 186.707031 174.621094 189.882812 181.539062 203.074219 C 185.308594 210.25 186.261719 218.589844 186.597656 226.710938 C 187.304688 243.730469 185.539062 261.027344 179.644531 276.976562 Z M 179.644531 276.976562 " fill-opacity="1" fill-rule="nonzero"/><path fill="#047aff" d="M 114.273438 185.953125 C 81.617188 186.070312 76.761719 192.335938 61.480469 214.636719 C 50.351562 230.871094 26.5 266.824219 24.777344 287.441406 C 23.71875 300.105469 29.214844 311.390625 42.6875 312.960938 L 134.617188 309.78125 L 136.964844 280.394531 C 130.839844 279.558594 90.65625 274.070312 89.453125 273.90625 C 86.25 273.46875 82.601562 273.859375 79.546875 272.980469 C 75.308594 271.765625 73.570312 266.632812 76.808594 263.339844 C 79.738281 260.363281 83.140625 257.679688 86.101562 254.605469 C 90.535156 249.996094 94.972656 245.386719 99.410156 240.777344 Z M 114.273438 185.953125 " fill-opacity="1" fill-rule="nonzero"/><path fill="#000000" d="M 127.226562 278.960938 C 127.074219 278.960938 129.378906 279.332031 78.96875 270.839844 C 78.253906 270.722656 77.917969 269.886719 78.355469 269.308594 L 100.890625 239.433594 C 101.214844 239.003906 101.820312 238.921875 102.246094 239.242188 C 102.671875 239.5625 102.757812 240.171875 102.4375 240.597656 L 80.859375 269.199219 L 127.386719 277.039062 C 127.914062 277.128906 128.269531 277.625 128.179688 278.15625 C 128.097656 278.625 127.691406 278.960938 127.226562 278.960938 Z M 127.226562 278.960938 " fill-opacity="1" fill-rule="nonzero"/><path fill="#000000" d="M 272.328125 235.167969 C 246.285156 234.355469 173.828125 232.089844 153.320312 231.449219 C 150.109375 231.34375 147.246094 233.480469 146.382812 236.621094 C 140.253906 258.429688 138.925781 261.328125 128.195312 302.074219 C 127.382812 305.179688 124.625 307.339844 121.449219 307.339844 L 82.191406 307.339844 C 78.335938 307.339844 75.199219 310.507812 75.199219 314.421875 L 75.199219 316.964844 C 75.199219 320.878906 78.335938 324.058594 82.191406 324.058594 L 247.332031 324.058594 C 250.335938 324.058594 252.992188 322.121094 253.949219 319.226562 L 278.738281 244.515625 C 280.234375 240.011719 277.023438 235.3125 272.328125 235.167969 Z M 222.710938 282.34375 L 217.113281 286.3125 C 216.519531 286.730469 216.132812 287.359375 216.066406 288.011719 L 215.550781 294.113281 C 215.410156 295.75 213.359375 296.863281 212.082031 296 L 207.296875 292.765625 C 206.792969 292.425781 206.085938 292.375 205.425781 292.636719 L 199.144531 295.097656 C 197.46875 295.765625 196.0625 294.417969 196.773438 292.820312 L 199.402344 286.859375 C 199.6875 286.21875 199.636719 285.566406 199.289062 285.066406 L 195.933594 280.484375 C 195.03125 279.265625 196.21875 277.328125 197.921875 277.199219 L 204.34375 276.753906 C 205.015625 276.699219 205.699219 276.335938 206.136719 275.769531 L 210.339844 270.480469 C 211.464844 269.066406 213.589844 269.210938 213.953125 270.730469 L 215.28125 276.414062 C 215.421875 277.015625 215.886719 277.460938 216.519531 277.589844 L 222.464844 278.902344 C 224.050781 279.253906 224.191406 281.285156 222.710938 282.34375 Z M 222.710938 282.34375 " fill-opacity="1" fill-rule="nonzero"/><path fill="#000000" d="M 116.792969 190.441406 C 116.339844 189.929688 116.554688 191.25 117.59375 163.144531 C 117.617188 162.609375 118.042969 162.152344 118.597656 162.214844 C 119.132812 162.234375 119.546875 162.683594 119.527344 163.214844 C 119.433594 165.808594 119.910156 153.65625 118.5 189.441406 C 124.304688 195.75 133.292969 198.230469 140.988281 195.628906 C 142.878906 194.984375 144.742188 193.433594 146.101562 191.375 C 147.15625 189.785156 147.035156 187.714844 147.011719 185.679688 C 146.980469 180.796875 147.546875 179.484375 147.132812 171.964844 C 147.101562 171.433594 147.511719 170.976562 148.042969 170.949219 C 148.578125 170.914062 149.03125 171.328125 149.0625 171.859375 C 149.304688 176.261719 149.25 177.585938 149.082031 181.164062 C 148.933594 184.363281 148.9375 184.675781 148.949219 186.222656 C 148.972656 188.222656 149.003906 190.496094 147.71875 192.441406 C 146.101562 194.882812 143.933594 196.667969 141.613281 197.457031 C 133.066406 200.351562 123.09375 197.53125 116.792969 190.441406 Z M 116.792969 190.441406 " fill-opacity="1" fill-rule="nonzero"/><path fill="#000000" d="M 117.890625 164.007812 C 113.964844 160.285156 111.242188 155.644531 109.582031 149.847656 C 105.578125 152.039062 99.988281 150.976562 97.371094 146.664062 C 96.140625 144.632812 95.660156 142.039062 95.945312 138.957031 C 96.199219 136.195312 96.992188 133.933594 98.300781 132.242188 C 101.484375 128.121094 107.117188 128.371094 110.96875 131.761719 C 111.371094 132.113281 111.410156 132.726562 111.058594 133.125 C 110.703125 133.527344 110.09375 133.566406 109.691406 133.214844 C 106.714844 130.59375 102.339844 130.179688 99.832031 133.425781 C 98.75 134.820312 98.089844 136.742188 97.871094 139.136719 C 97.625 141.796875 98.011719 143.992188 99.023438 145.664062 C 100.058594 147.367188 101.839844 148.578125 103.785156 148.894531 C 105.910156 149.246094 108.167969 148.714844 109.535156 147.546875 C 110.089844 147.078125 110.933594 147.359375 111.105469 148.054688 L 111.191406 148.402344 C 112.726562 154.289062 115.351562 158.933594 119.21875 162.605469 C 119.609375 162.972656 119.625 163.582031 119.257812 163.972656 C 118.890625 164.355469 118.277344 164.375 117.890625 164.007812 Z M 117.890625 164.007812 " fill-opacity="1" fill-rule="nonzero"/><path fill="#000000" d="M 140.320312 174.363281 C 137.175781 174.34375 133.667969 173.585938 130.171875 172.171875 C 129.679688 171.972656 129.4375 171.410156 129.640625 170.914062 C 129.839844 170.417969 130.402344 170.175781 130.898438 170.378906 C 134.167969 171.703125 137.429688 172.410156 140.332031 172.429688 C 146.710938 172.441406 153.820312 169.058594 158.976562 161.882812 C 164.605469 154.050781 167.757812 142.1875 167.410156 130.144531 C 167.066406 118.199219 161.953125 106.269531 154.378906 99.75 C 149.355469 95.425781 143.550781 93.625 137.128906 94.402344 C 123.105469 96.097656 110.65625 110.117188 111.269531 131.0625 C 111.285156 131.59375 110.863281 132.039062 110.332031 132.058594 C 109.824219 132.105469 109.351562 131.652344 109.335938 131.117188 C 109.066406 121.878906 111.347656 113.066406 115.765625 106.300781 C 120.769531 98.644531 128.667969 93.476562 136.894531 92.484375 C 143.78125 91.644531 150.261719 93.65625 155.640625 98.285156 C 163.605469 105.140625 168.988281 117.625 169.34375 130.089844 C 169.703125 142.496094 166.339844 157.238281 157.910156 166.222656 C 153.269531 171.171875 147.007812 174.363281 140.320312 174.363281 Z M 140.320312 174.363281 " fill-opacity="1" fill-rule="nonzero"/><path fill="#000000" d="M 165.289062 128.960938 C 164.714844 128.5 163.863281 128.359375 163.039062 128.253906 C 160.363281 127.921875 158.234375 127.972656 156.347656 128.414062 C 155.828125 128.539062 155.308594 128.210938 155.1875 127.691406 C 155.0625 127.171875 155.386719 126.652344 155.90625 126.53125 C 158.027344 126.035156 160.367188 125.972656 163.28125 126.335938 C 164.332031 126.46875 165.539062 126.675781 166.507812 127.460938 C 166.921875 127.796875 166.988281 128.40625 166.652344 128.820312 C 166.316406 129.234375 165.703125 129.296875 165.289062 128.960938 Z M 165.289062 128.960938 " fill-opacity="1" fill-rule="nonzero"/><path fill="#000000" d="M 102.128906 140.847656 C 102.125 140.847656 102.125 140.847656 102.121094 140.847656 C 101.585938 140.84375 101.15625 140.40625 101.160156 139.875 C 101.171875 138.832031 101.234375 137.722656 101.644531 136.660156 C 102.140625 135.371094 103.074219 134.425781 104.199219 134.0625 C 106.785156 133.226562 109.003906 136.011719 107.394531 136.792969 C 106.917969 137.027344 106.335938 136.828125 106.101562 136.34375 C 105.910156 135.949219 105.296875 135.742188 104.792969 135.90625 C 104.230469 136.082031 103.730469 136.625 103.449219 137.355469 C 103.152344 138.128906 103.101562 139.03125 103.097656 139.890625 C 103.089844 140.421875 102.660156 140.847656 102.128906 140.847656 Z M 102.128906 140.847656 " fill-opacity="1" fill-rule="nonzero"/><path fill="#000000" d="M 147.351562 147.746094 C 146.816406 147.722656 146.402344 147.273438 146.425781 146.738281 C 146.449219 146.207031 146.910156 145.746094 147.433594 145.816406 C 149.933594 145.914062 151.386719 145.460938 151.863281 144.414062 C 152.488281 143.050781 151.234375 141.261719 150.425781 139.550781 C 149.167969 136.890625 149.011719 133.683594 149.996094 130.746094 C 150.164062 130.238281 150.707031 129.964844 151.222656 130.136719 C 151.726562 130.304688 152 130.855469 151.832031 131.359375 C 151.003906 133.828125 151.128906 136.515625 152.175781 138.726562 C 153.160156 140.8125 154.667969 142.925781 153.625 145.21875 C 152.585938 147.492188 149.851562 147.847656 147.351562 147.746094 Z M 147.351562 147.746094 " fill-opacity="1" fill-rule="nonzero"/><path fill="#000000" d="M 136.84375 130.476562 C 137.121094 130.507812 137.378906 130.640625 137.613281 130.878906 C 137.847656 131.121094 138.039062 131.445312 138.195312 131.855469 C 138.351562 132.269531 138.453125 132.734375 138.503906 133.257812 C 138.558594 133.78125 138.554688 134.316406 138.496094 134.871094 C 138.4375 135.421875 138.324219 135.949219 138.164062 136.449219 C 138.003906 136.949219 137.804688 137.382812 137.566406 137.753906 C 137.328125 138.125 137.070312 138.402344 136.789062 138.585938 C 136.511719 138.769531 136.230469 138.847656 135.953125 138.816406 C 135.675781 138.789062 135.417969 138.652344 135.183594 138.414062 C 134.949219 138.175781 134.753906 137.851562 134.601562 137.4375 C 134.445312 137.027344 134.34375 136.558594 134.289062 136.035156 C 134.238281 135.515625 134.242188 134.976562 134.300781 134.421875 C 134.359375 133.871094 134.46875 133.34375 134.632812 132.84375 C 134.792969 132.34375 134.992188 131.910156 135.230469 131.539062 C 135.46875 131.171875 135.726562 130.894531 136.007812 130.710938 C 136.285156 130.523438 136.566406 130.449219 136.84375 130.476562 Z M 136.84375 130.476562 " fill-opacity="1" fill-rule="nonzero"/><path fill="#000000" d="M 161.457031 133.214844 C 161.734375 133.242188 161.992188 133.375 162.226562 133.617188 C 162.460938 133.855469 162.65625 134.179688 162.808594 134.59375 C 162.964844 135.003906 163.070312 135.472656 163.121094 135.992188 C 163.171875 136.515625 163.167969 137.054688 163.109375 137.605469 C 163.050781 138.160156 162.941406 138.6875 162.78125 139.183594 C 162.621094 139.683594 162.417969 140.121094 162.179688 140.488281 C 161.941406 140.859375 161.683594 141.136719 161.40625 141.320312 C 161.125 141.503906 160.847656 141.582031 160.566406 141.554688 C 160.289062 141.523438 160.035156 141.390625 159.800781 141.148438 C 159.566406 140.910156 159.371094 140.585938 159.214844 140.171875 C 159.0625 139.761719 158.957031 139.292969 158.90625 138.773438 C 158.855469 138.25 158.855469 137.710938 158.917969 137.160156 C 158.976562 136.605469 159.085938 136.082031 159.246094 135.582031 C 159.40625 135.082031 159.605469 134.644531 159.84375 134.277344 C 160.082031 133.90625 160.34375 133.628906 160.621094 133.445312 C 160.902344 133.261719 161.179688 133.183594 161.457031 133.214844 Z M 161.457031 133.214844 " fill-opacity="1" fill-rule="nonzero"/><path fill="#000000" d="M 126.25 127.699219 C 125.902344 127.289062 125.953125 126.679688 126.363281 126.335938 C 130.324219 122.984375 136.160156 121.816406 141.234375 123.355469 C 141.746094 123.511719 142.035156 124.050781 141.878906 124.5625 C 141.722656 125.074219 141.183594 125.355469 140.671875 125.207031 C 136.210938 123.851562 131.085938 124.871094 127.613281 127.8125 C 127.203125 128.15625 126.589844 128.105469 126.25 127.699219 Z M 126.25 127.699219 " fill-opacity="1" fill-rule="nonzero"/><path fill="#000000" d="M 139.007812 156.71875 C 138.609375 156.359375 138.574219 155.75 138.933594 155.351562 C 139.289062 154.953125 139.898438 154.917969 140.296875 155.273438 C 142.304688 157.066406 145.570312 158.460938 147.941406 157.667969 C 148.445312 157.492188 148.996094 157.765625 149.167969 158.273438 C 149.339844 158.777344 149.066406 159.328125 148.5625 159.496094 C 145.417969 160.558594 141.441406 158.890625 139.007812 156.71875 Z M 139.007812 156.71875 " fill-opacity="1" fill-rule="nonzero"/><path fill="#000000" d="M 170.785156 118.734375 C 162.046875 120.597656 152.664062 117.984375 145.53125 112.53125 C 145.824219 115.742188 148.015625 118.699219 150.976562 119.875 C 138.398438 123.1875 124.335938 120.042969 114.289062 111.675781 C 108.074219 126.988281 113.394531 132.496094 105.273438 130.058594 C 103.882812 129.644531 103.261719 129.101562 101.8125 129.65625 C 101.195312 129.894531 98.300781 132.542969 98.734375 133.320312 C 94.976562 126.601562 89.183594 120.605469 88.375 112.925781 C 87.515625 104.773438 93.535156 96.472656 101.457031 94.882812 C 100.359375 91.109375 101.320312 86.929688 103.398438 83.613281 C 105.480469 80.296875 108.585938 77.761719 111.902344 75.726562 C 128.371094 65.621094 153.734375 66.820312 165.71875 83.652344 C 168.390625 87.40625 169.007812 91.40625 170.890625 94.441406 C 172.539062 97.09375 175.714844 99.121094 178.625 100.03125 C 179.644531 100.351562 189.660156 102.492188 189.933594 101.589844 C 187.339844 110.234375 179.550781 116.863281 170.785156 118.734375 Z M 170.785156 118.734375 " fill-opacity="1" fill-rule="nonzero"/><path fill="#000000" d="M 167.445312 229.441406 C 166.949219 227.503906 166.589844 225.515625 166.371094 223.527344 C 166.3125 222.996094 166.699219 222.519531 167.230469 222.460938 C 167.761719 222.386719 168.238281 222.785156 168.296875 223.320312 C 168.503906 225.214844 168.847656 227.117188 169.320312 228.964844 C 169.449219 229.484375 169.136719 230.007812 168.621094 230.140625 C 168.09375 230.273438 167.574219 229.953125 167.445312 229.441406 Z M 167.445312 229.441406 " fill-opacity="1" fill-rule="nonzero"/><path fill="#000000" d="M 219.058594 29.382812 C 219.027344 30.253906 219.007812 30.917969 218.640625 33.265625 C 217.902344 37.984375 218.371094 37.910156 218.171875 40.851562 C 218.132812 41.402344 217.695312 41.816406 217.140625 41.800781 C 216.613281 41.785156 216.203125 41.363281 216.242188 40.800781 C 216.402344 38.421875 216.121094 37.378906 216.484375 34.714844 C 213.855469 34.691406 210.824219 35.382812 207.921875 35.816406 C 207.8125 37.429688 207.320312 39.332031 207.210938 40.953125 C 207.175781 41.488281 206.75 41.925781 206.179688 41.910156 C 205.625 41.894531 205.246094 41.449219 205.28125 40.902344 C 205.414062 39.019531 205.9375 36.414062 206.066406 34.550781 C 206.203125 32.542969 206.050781 32.058594 206.472656 28.816406 C 206.613281 27.757812 206.699219 26.964844 206.734375 26.433594 C 206.824219 25.121094 208.753906 25.175781 208.664062 26.488281 C 208.628906 27.023438 208.539062 27.824219 208.394531 28.890625 C 208 31.875 208.15625 31.527344 208.015625 33.839844 C 211.195312 33.378906 214.128906 32.71875 216.765625 32.761719 C 216.902344 31.804688 217.039062 30.363281 217.167969 28.433594 C 217.222656 27.597656 217.671875 25.820312 218.53125 25.84375 C 219.007812 25.855469 219.492188 26.25 219.449219 26.84375 C 219.445312 26.945312 219.132812 27.078125 219.058594 29.382812 Z M 219.058594 29.382812 " fill-opacity="1" fill-rule="nonzero"/><path fill="#000000" d="M 234.09375 29.132812 C 233.597656 29.117188 232.839844 29.058594 231.8125 28.945312 C 229.835938 28.75 229.535156 28.792969 228.8125 28.765625 C 228.691406 31.445312 228.886719 34.976562 228.695312 37.789062 C 228.617188 38.90625 228.902344 40.121094 228.390625 41.105469 C 228.003906 41.886719 227.242188 41.898438 226.765625 41.441406 C 226.398438 41.085938 226.476562 40.6875 226.574219 40.257812 C 226.773438 39.4375 226.636719 38.191406 226.726562 36.839844 C 226.890625 34.414062 226.667969 31.109375 226.773438 28.75 C 226.484375 28.730469 224.050781 28.785156 222.421875 28.316406 C 221.136719 27.941406 221.65625 26.179688 222.78125 26.28125 C 223.550781 26.347656 224.914062 26.644531 225.996094 26.671875 C 227.164062 26.703125 228.644531 26.695312 229.65625 26.722656 C 230.992188 26.757812 232.851562 27.03125 234.234375 27.070312 C 235.171875 27.097656 235.5 28.242188 234.835938 28.855469 C 234.628906 29.046875 234.382812 29.136719 234.09375 29.132812 Z M 234.09375 29.132812 " fill-opacity="1" fill-rule="nonzero"/><path fill="#000000" d="M 248.953125 42.527344 C 248.769531 42.199219 248.625 41.660156 248.515625 40.90625 C 248.078125 37.757812 248 37.878906 247.445312 32.035156 L 245.027344 38.039062 C 244.53125 39.273438 244.109375 40.660156 243.425781 41.769531 C 243.109375 42.269531 242.714844 42.515625 242.238281 42.5 C 241.152344 42.472656 241.058594 40.8125 240.800781 39.625 C 240.285156 37.242188 239.863281 34.691406 239.527344 31.980469 L 239.042969 33.765625 L 237.390625 39.035156 C 237.292969 39.65625 237.0625 40.574219 236.699219 41.785156 C 236.464844 42.304688 236.113281 42.554688 235.652344 42.542969 C 235.015625 42.523438 234.648438 42.035156 234.691406 41.417969 C 234.847656 39.085938 235.9375 36.699219 237.042969 33.300781 C 237.46875 31.785156 238.125 28.328125 238.96875 27.273438 C 239.5625 26.507812 240.5625 26.46875 240.929688 27.488281 C 241.148438 28.089844 241.347656 29.3125 241.527344 31.15625 C 241.730469 33.371094 242.125 35.773438 242.699219 38.359375 C 245.316406 32.628906 246.175781 29.042969 246.21875 28.910156 C 246.492188 27.921875 246.949219 26.757812 247.914062 26.78125 C 249.203125 26.820312 249.269531 29.582031 249.347656 30.871094 C 249.539062 33.910156 249.855469 36.507812 250.300781 38.667969 C 250.429688 39.304688 250.976562 41.625 250.941406 42.128906 C 250.882812 43.023438 249.546875 43.617188 248.953125 42.527344 Z M 248.953125 42.527344 " fill-opacity="1" fill-rule="nonzero"/><path fill="#000000" d="M 262.03125 42.203125 C 260.609375 42.808594 254.488281 43.929688 253.28125 42.996094 C 252.894531 42.707031 252.730469 42.183594 252.78125 41.433594 L 253.207031 38.113281 C 254.445312 28.179688 253.820312 27.832031 254.496094 27.1875 C 255.125 26.582031 256.222656 26.988281 256.160156 27.964844 C 255.371094 39.558594 254.871094 39.132812 254.792969 41.289062 C 256.542969 41.355469 258.777344 41.003906 261.507812 40.234375 C 262.257812 40.039062 262.785156 40.601562 262.734375 41.277344 C 262.707031 41.703125 262.472656 42.011719 262.03125 42.203125 Z M 262.03125 42.203125 " fill-opacity="1" fill-rule="nonzero"/><path fill="#000000" d="M 278.886719 184.378906 C 278.355469 184.375 277.976562 184.058594 277.742188 183.4375 C 277.535156 182.90625 277.335938 182.582031 277.144531 182.464844 C 276.976562 182.371094 276.550781 182.320312 275.863281 182.3125 C 274.664062 182.304688 273.289062 183.210938 271.734375 185.03125 C 269.625 187.476562 268.519531 189.804688 268.410156 192.015625 C 268.304688 194.09375 269.738281 195.972656 271.78125 195.992188 C 274.75 196.019531 276.761719 193.394531 277.753906 193.40625 C 278.765625 193.414062 279.480469 194.796875 278.417969 195.695312 C 276.140625 197.609375 273.886719 198.558594 271.65625 198.535156 C 268.160156 198.507812 265.757812 195.4375 265.929688 191.992188 C 266.070312 189.1875 267.386719 186.324219 269.882812 183.402344 C 271.960938 180.960938 274 179.753906 275.992188 179.769531 C 276.609375 179.777344 277.347656 179.820312 277.925781 180.027344 C 278.234375 179.605469 278.621094 179.398438 279.082031 179.402344 C 279.652344 179.40625 279.996094 179.789062 280.105469 180.542969 C 280.207031 181.210938 280.230469 182.035156 280.183594 183.011719 C 280.144531 183.722656 279.679688 184.386719 278.886719 184.378906 Z M 278.886719 184.378906 " fill-opacity="1" fill-rule="nonzero"/><path fill="#000000" d="M 291.519531 190.441406 C 291.503906 190.746094 291.390625 191.015625 291.175781 191.238281 C 290.632812 191.808594 290.042969 191.472656 289.496094 191.464844 C 287.632812 191.484375 287.480469 191.496094 287.015625 191.46875 L 286.871094 194.382812 C 286.832031 195.128906 286.445312 195.496094 285.710938 195.488281 C 285.347656 195.488281 285.078125 195.390625 284.898438 195.203125 C 284.496094 194.777344 284.722656 194.089844 284.722656 192.9375 L 284.78125 191.496094 C 283.777344 191.542969 283.070312 191.566406 282.65625 191.5625 C 281.375 191.550781 280.753906 191.164062 280.792969 190.402344 C 280.820312 189.867188 281.0625 189.53125 281.523438 189.40625 C 281.875 189.316406 282.382812 189.410156 284.890625 189.289062 L 284.953125 187.835938 C 285.007812 186.675781 285.078125 185.378906 286.238281 185.390625 C 286.84375 185.394531 287.347656 185.824219 287.3125 186.480469 C 287.308594 186.621094 287.28125 186.84375 287.234375 187.148438 C 287.125 187.929688 287.171875 187.894531 287.101562 189.257812 L 288.027344 189.304688 C 288.484375 189.308594 289.089844 189.253906 289.546875 189.257812 C 290.898438 189.269531 291.558594 189.664062 291.519531 190.441406 Z M 291.519531 190.441406 " fill-opacity="1" fill-rule="nonzero"/><path fill="#000000" d="M 303.722656 190.554688 C 303.707031 190.863281 303.589844 191.128906 303.378906 191.351562 C 302.832031 191.925781 302.246094 191.585938 301.695312 191.578125 C 299.832031 191.597656 299.683594 191.609375 299.21875 191.582031 L 299.070312 194.496094 C 299.035156 195.242188 298.644531 195.609375 297.910156 195.601562 C 297.207031 195.597656 296.828125 195.242188 296.863281 194.476562 C 296.867188 194.34375 296.988281 191.433594 296.984375 191.609375 C 295.980469 191.65625 295.269531 191.679688 294.859375 191.675781 C 293.578125 191.664062 292.957031 191.277344 292.992188 190.515625 C 293.019531 189.980469 293.265625 189.648438 293.726562 189.519531 C 294.082031 189.429688 294.613281 189.519531 297.09375 189.402344 C 297.191406 187.738281 296.945312 185.492188 298.441406 185.503906 C 299.050781 185.507812 299.546875 185.941406 299.515625 186.59375 C 299.496094 186.976562 299.382812 187.527344 299.359375 187.957031 L 299.300781 189.375 C 300.160156 189.398438 299.976562 189.445312 300.988281 189.394531 C 301.328125 189.375 301.582031 189.371094 301.746094 189.371094 C 303.101562 189.382812 303.761719 189.777344 303.722656 190.554688 Z M 303.722656 190.554688 " fill-opacity="1" fill-rule="nonzero"/><path fill="#000000" d="M 113.050781 20.351562 C 112.953125 19.902344 112.835938 19.621094 112.699219 19.5 C 112.574219 19.40625 112.242188 19.3125 111.695312 19.222656 C 110.742188 19.0625 109.535156 19.605469 108.074219 20.859375 C 102.125 25.921875 104.492188 30.765625 108.914062 29.414062 C 110.222656 29.003906 111.3125 28.199219 111.839844 28.285156 C 112.667969 28.425781 113.023438 29.621094 112.085938 30.191406 C 108.941406 32.089844 105.078125 32.511719 103.226562 29.457031 C 102.527344 28.300781 102.320312 27.035156 102.601562 25.664062 C 103.058594 23.449219 104.457031 21.339844 106.800781 19.328125 C 108.757812 17.652344 110.527344 16.945312 112.109375 17.210938 C 112.609375 17.300781 113.171875 17.421875 113.617188 17.660156 C 113.917969 17.367188 114.25 17.25 114.617188 17.3125 C 115.070312 17.386719 115.296875 17.734375 115.289062 18.347656 C 115.285156 18.894531 115.207031 19.550781 115.046875 20.324219 C 114.804688 21.496094 113.324219 21.660156 113.050781 20.351562 Z M 113.050781 20.351562 " fill-opacity="1" fill-rule="nonzero"/><path fill="#000000" d="M 114.6875 30.234375 C 114.792969 29.664062 115.328125 29.382812 115.875 29.472656 C 116.660156 29.605469 116.625 30.671875 117.296875 31.324219 C 118.121094 32.113281 120.414062 32.761719 122.589844 32.105469 C 123.820312 31.730469 124.542969 31.042969 124.746094 30.042969 C 124.917969 29.222656 124.582031 28.492188 123.742188 27.859375 C 121.914062 26.457031 120.128906 26.992188 118.417969 25.574219 C 117.597656 24.886719 117.285156 24.050781 117.488281 23.066406 C 117.730469 21.902344 118.609375 20.953125 120.132812 20.21875 C 122.539062 19.074219 124.433594 19.28125 126.4375 20.207031 C 127.445312 20.664062 127.902344 21.117188 127.8125 21.550781 C 127.472656 23.191406 125.5 21.597656 123.925781 21.363281 C 122.21875 21.097656 120.019531 21.664062 119.679688 23.324219 C 119.429688 24.527344 121.757812 25.015625 122.949219 25.304688 C 126.058594 26.066406 127.203125 28.21875 126.777344 30.277344 C 125.90625 34.515625 119.59375 35.296875 116.074219 32.859375 C 114.964844 32.09375 114.503906 31.21875 114.6875 30.234375 Z M 114.6875 30.234375 " fill-opacity="1" fill-rule="nonzero"/><path fill="#000000" d="M 128.675781 32.59375 C 128.726562 32.316406 128.867188 32.109375 129.09375 31.96875 C 129.324219 31.828125 129.582031 31.785156 129.863281 31.832031 C 130.648438 31.964844 130.613281 33.027344 131.285156 33.683594 C 132.953125 35.269531 138.152344 35.242188 138.734375 32.402344 C 139.121094 30.542969 136.78125 29.421875 134.921875 29.054688 C 130.453125 28.128906 130.320312 24.414062 134.121094 22.574219 C 136.523438 21.433594 138.421875 21.636719 140.425781 22.5625 C 141.433594 23.023438 141.890625 23.472656 141.800781 23.910156 C 141.460938 25.558594 139.511719 23.960938 137.914062 23.722656 C 136.203125 23.457031 134.007812 24.027344 133.667969 25.679688 C 133.421875 26.882812 135.738281 27.371094 136.9375 27.660156 C 140.0625 28.429688 141.1875 30.589844 140.765625 32.636719 C 139.894531 36.871094 133.589844 37.660156 130.0625 35.21875 C 128.953125 34.449219 128.492188 33.574219 128.675781 32.59375 Z M 128.675781 32.59375 " fill-opacity="1" fill-rule="nonzero"/><path fill="#000000" d="M 232.773438 91.6875 C 217.878906 89.832031 204.207031 100.027344 202.253906 114.441406 C 200.285156 128.859375 210.777344 142.058594 225.660156 143.917969 C 225.675781 143.914062 225.679688 143.929688 225.691406 143.925781 L 224.285156 152.199219 C 224.351562 152.175781 224.390625 152.105469 224.4375 152.058594 L 233.640625 143.769531 C 245.167969 141.902344 254.589844 132.949219 256.195312 121.164062 C 258.148438 106.746094 247.667969 93.542969 232.773438 91.6875 Z M 213.757812 116.539062 C 215 117.566406 216.164062 119.242188 217.261719 120.308594 C 218.472656 121.480469 216.90625 123.210938 215.671875 122.164062 C 214.222656 120.984375 212.980469 118.597656 210.933594 117.667969 C 210.257812 117.375 209.929688 116.972656 209.957031 116.46875 C 209.980469 116.007812 210.3125 115.640625 210.953125 115.371094 C 213.058594 114.46875 214.941406 112.003906 216.480469 110.832031 C 217.472656 110.078125 218.527344 110.9375 218.480469 111.871094 C 218.464844 112.183594 218.3125 112.472656 218.027344 112.734375 C 217.109375 113.628906 215.6875 114.898438 213.757812 116.539062 Z M 226.128906 120.5625 L 223.386719 125.972656 C 222.574219 127.554688 220.535156 126.394531 221.160156 124.996094 C 223.296875 119.847656 227.867188 113.476562 230.03125 108.289062 C 231.386719 105.058594 232.367188 103.46875 232.972656 103.527344 C 233.617188 103.578125 234.210938 104.117188 234.179688 104.808594 C 234.140625 105.507812 233.695312 106.070312 232.277344 109.238281 C 230.566406 113.355469 227.921875 117.390625 226.128906 120.5625 Z M 244.074219 118.421875 C 241.8125 120.34375 239.460938 122.011719 237.015625 123.425781 C 236.753906 123.578125 236.507812 123.648438 236.285156 123.636719 C 235.292969 123.585938 234.589844 122.140625 235.71875 121.351562 L 241.199219 117.539062 C 240.1875 116.777344 236.238281 113.144531 236.304688 111.882812 C 236.351562 110.921875 237.664062 110.152344 238.503906 111.222656 C 240.453125 113.675781 242.246094 115.390625 243.878906 116.363281 C 244.847656 116.925781 244.84375 117.753906 244.074219 118.421875 Z M 244.074219 118.421875 " fill-opacity="1" fill-rule="nonzero"/><path fill="#000000" d="M 279.503906 317.839844 C 267.679688 310.996094 265.019531 298.640625 268.25 292.613281 C 270.585938 288.203125 276.03125 286.304688 281.027344 288.28125 C 281.402344 288.429688 281.648438 288.796875 281.640625 289.199219 C 281.539062 293.03125 281.554688 292.808594 281.535156 292.917969 L 281.082031 295.574219 C 280.941406 296.398438 279.871094 296.679688 279.355469 295.992188 C 278.695312 295.105469 277.246094 294.816406 276.132812 295.34375 C 275.042969 295.867188 274.199219 297.085938 273.9375 298.519531 C 273.34375 301.757812 275.664062 307.265625 280.609375 310.089844 C 280.914062 310.261719 281.101562 310.589844 281.097656 310.941406 C 281.09375 311.070312 281.101562 311.148438 280.953125 317.023438 C 280.9375 317.761719 280.132812 318.203125 279.503906 317.839844 Z M 269.957031 293.519531 C 267.355469 298.378906 269.371094 308.878906 279.058594 315.292969 C 279.0625 315.15625 279.148438 311.644531 279.152344 311.46875 C 273.761719 308.113281 271.324219 302.046875 272.03125 298.171875 C 272.769531 294.140625 276.445312 292.121094 279.453125 293.628906 L 279.617188 292.660156 L 279.6875 289.855469 C 275.710938 288.609375 271.703125 290.226562 269.957031 293.519531 Z M 269.957031 293.519531 " fill-opacity="1" fill-rule="nonzero"/><path fill="#000000" d="M 289.335938 330.347656 C 286.15625 329.9375 282.785156 329.652344 280.460938 327.476562 C 277.902344 325.078125 278.894531 322.1875 278.957031 319.621094 C 279.066406 315.917969 278.683594 330.558594 279.757812 287.117188 C 279.777344 285.90625 280.792969 284.875 282.035156 284.941406 L 316.226562 285.789062 C 317.445312 285.835938 318.40625 286.859375 318.382812 288.070312 C 316.960938 345.578125 317.980469 304.355469 317.597656 320.054688 C 317.546875 322.351562 318.113281 325.21875 316.375 327.367188 C 316.371094 327.375 316.292969 327.460938 316.285156 327.46875 L 316.175781 327.589844 C 313.703125 330.335938 309.667969 330.570312 306.050781 330.835938 C 300.441406 331.269531 294.800781 331.109375 289.335938 330.347656 Z M 281.960938 286.871094 C 281.457031 286.871094 281.824219 286.410156 281.03125 313.664062 C 280.90625 319.167969 280.9375 319.652344 280.757812 321.480469 C 280.546875 323.597656 280.492188 324.851562 281.785156 326.066406 C 283.707031 327.867188 286.816406 328.046875 289.601562 328.429688 C 298.417969 329.664062 306.113281 328.875 306.480469 328.867188 C 309.464844 328.644531 312.851562 328.394531 314.761719 326.265625 L 314.933594 326.082031 C 316.078125 324.65625 315.613281 322.238281 315.664062 320.03125 C 316.757812 275.472656 316.359375 291.730469 316.449219 288.03125 C 316.453125 287.867188 316.324219 287.726562 316.167969 287.722656 L 281.976562 286.871094 C 281.972656 286.871094 281.964844 286.871094 281.960938 286.871094 Z M 317.417969 288.054688 L 317.429688 288.054688 Z M 317.417969 288.054688 " fill-opacity="1" fill-rule="nonzero"/><path fill="#000000" d="M 298.941406 290.710938 C 292.007812 290.535156 280.292969 289.230469 280.386719 285.453125 C 280.425781 283.863281 282.402344 282.71875 286.425781 281.953125 C 296.261719 280.089844 317.855469 281.332031 317.730469 286.390625 C 317.628906 290.628906 303.242188 290.816406 298.941406 290.710938 Z M 297.050781 283.042969 C 287.957031 283.042969 282.652344 284.601562 282.316406 285.527344 C 282.628906 286.488281 288.628906 288.515625 298.988281 288.777344 C 309.25 289.03125 315.332031 287.34375 315.789062 286.34375 C 315.382812 285.320312 309.394531 283.324219 299.128906 283.066406 C 298.414062 283.050781 297.722656 283.042969 297.050781 283.042969 Z M 315.800781 286.316406 Z M 315.800781 286.316406 " fill-opacity="1" fill-rule="nonzero"/><path fill="#000000" d="M 297.152344 318.234375 C 293.617188 318.234375 290.230469 315.984375 288.914062 312.761719 C 288.714844 312.265625 288.949219 311.703125 289.445312 311.5 C 289.941406 311.300781 290.503906 311.535156 290.707031 312.03125 C 291.734375 314.546875 294.382812 316.300781 297.152344 316.300781 C 297.152344 316.300781 297.15625 316.300781 297.160156 316.300781 C 299.847656 316.296875 302.558594 314.625 303.910156 312.144531 C 305.191406 309.796875 305.175781 306.832031 303.875 304.765625 C 302.65625 302.828125 300.339844 301.683594 298.097656 301.945312 C 295.875 302.199219 293.832031 303.871094 293.125 306.011719 C 292.609375 307.570312 292.851562 309.246094 293.746094 310.273438 C 294.640625 311.300781 296.347656 311.53125 297.253906 310.746094 C 297.65625 310.394531 298.265625 310.441406 298.617188 310.847656 C 298.964844 311.25 298.921875 311.859375 298.515625 312.210938 C 296.796875 313.695312 293.886719 313.382812 292.285156 311.539062 C 290.953125 310.007812 290.5625 307.601562 291.285156 305.40625 C 292.238281 302.527344 294.886719 300.367188 297.878906 300.027344 C 300.832031 299.6875 303.902344 301.179688 305.515625 303.738281 C 307.199219 306.414062 307.238281 310.078125 305.609375 313.066406 C 303.902344 316.199219 300.589844 318.226562 297.164062 318.234375 C 297.160156 318.234375 297.15625 318.234375 297.152344 318.234375 Z M 297.152344 318.234375 " fill-opacity="1" fill-rule="nonzero"/><path fill="#000000" d="M 288.816406 284.433594 C 289.761719 284.003906 289.953125 282.761719 290.382812 281.804688 C 290.867188 280.71875 291.816406 279.859375 292.9375 279.492188 C 293.964844 279.152344 294.359375 279.539062 294.894531 280.359375 C 295.578125 281.394531 297.109375 283.707031 298.59375 282.761719 C 300.234375 281.71875 299.855469 278.953125 301.355469 277.714844 C 302.398438 276.851562 304.183594 277.214844 304.820312 278.414062 C 305.097656 278.9375 305.171875 279.542969 305.414062 280.078125 C 306.976562 283.492188 313.773438 282.203125 316.21875 285.117188 C 317.109375 286.179688 316.070312 287.257812 315.070312 287.796875 C 310.925781 290.03125 305.90625 289.175781 301.621094 288.941406 C 295.496094 288.605469 286.824219 289.363281 284.390625 287.40625 C 283.453125 286.652344 283.289062 285.035156 284.324219 284.238281 C 285.726562 283.160156 287.34375 285.101562 288.816406 284.433594 Z M 288.816406 284.433594 " fill-opacity="1" fill-rule="nonzero"/><path fill="#000000" d="M 280.089844 248.339844 C 279.925781 247.832031 280.207031 247.285156 280.714844 247.125 C 286.238281 245.351562 291.429688 241.109375 295.328125 235.179688 C 299.03125 229.546875 301.253906 223.160156 303.101562 217.09375 C 303.257812 216.585938 303.796875 216.300781 304.308594 216.453125 C 304.820312 216.609375 305.109375 217.148438 304.953125 217.660156 C 303.152344 223.5625 300.792969 230.386719 296.945312 236.242188 C 292.804688 242.539062 287.25 247.058594 281.304688 248.964844 C 280.792969 249.128906 280.25 248.84375 280.089844 248.339844 Z M 280.089844 248.339844 " fill-opacity="1" fill-rule="nonzero"/><path fill="#000000" d="M 265.949219 166.644531 L 247.285156 137.519531 C 246.996094 137.070312 247.128906 136.472656 247.578125 136.183594 C 248.027344 135.898438 248.625 136.027344 248.914062 136.480469 L 267.578125 165.601562 C 267.867188 166.050781 267.734375 166.648438 267.285156 166.9375 C 266.835938 167.226562 266.238281 167.09375 265.949219 166.644531 Z M 265.949219 166.644531 " fill-opacity="1" fill-rule="nonzero"/></svg>